<?xml version="1.0" encoding="utf-8"?>
<!-- Generator: Adobe Illustrator 24.0.1, SVG Export Plug-In . SVG Version: 6.00 Build 0)  -->
<svg version="1.1" id="Layer_2_1_" xmlns="http://www.w3.org/2000/svg" xmlns:xlink="http://www.w3.org/1999/xlink" x="0px" y="0px"
	 viewBox="0 0 400 180" style="enable-background:new 0 0 400 180;" xml:space="preserve">
<style type="text/css">
	.st0{display:none;fill:#005084;}
	.st1{fill:#BAB7BA;}
	.st2{display:none;}
	.st3{display:inline;fill:#BAB7BA;}
</style>
<rect class="st0" width="400" height="180"/>
<g>
	<g>
		<g id="GUŠTI_6_">
			<path class="st1" d="M148.5,126.3v15.9H146l-1.7-4.2c-1.8,3.1-4.6,4.7-8.4,4.7c-4.2,0-7.4-1.6-9.4-4.8c-2.1-3.2-3.1-6.9-3.1-11.2
				c0-4.5,1.2-8.3,3.5-11.4s5.6-4.6,9.7-4.6c3.1,0,5.7,0.9,7.7,2.7c2,1.8,3.3,4.1,3.8,6.8l-4.8,0.9c-0.9-3.8-3.1-5.7-6.5-5.7
				c-2.2,0-4,0.9-5.4,2.7c-1.4,1.8-2.1,4.5-2.1,8.3c0,7.8,2.4,11.8,7.3,11.8c1.9,0,3.5-0.7,4.7-2s1.9-3.1,1.9-5.2h-6.4v-4.5h11.7
				V126.3z"/>
			<path class="st1" d="M176.6,112.2v19.3c0,2.6-0.3,4.6-0.9,6c-0.6,1.4-1.8,2.6-3.5,3.6s-3.8,1.5-6.3,1.5s-4.6-0.4-6.2-1.3
				c-1.6-0.9-2.8-2.1-3.5-3.6s-1.1-3.5-1.1-5.9v-19.7h5.7v19.3c0,2.6,0.6,4.4,1.7,5.2c1.1,0.8,2.5,1.2,4,1.2c1.7,0,3.1-0.4,4.2-1.3
				c1-0.9,1.6-2.6,1.6-5.1v-19.3h4.3V112.2z"/>
			<path class="st1" d="M183.2,134.1l5.4-1.1c0.6,2.9,3.1,4.4,7.5,4.4c2,0,3.5-0.4,4.6-1.1c1.1-0.8,1.6-1.7,1.6-2.8
				c0-0.8-0.2-1.6-0.7-2.2c-0.5-0.7-1.5-1.2-3.1-1.6l-5.9-1.5c-2-0.5-3.5-1.1-4.5-1.7s-1.7-1.5-2.3-2.7s-0.9-2.4-0.9-3.7
				c0-2.6,1-4.8,3.1-6.4s4.7-2.4,7.9-2.4c2.7,0,5,0.6,7.1,1.7s3.4,2.7,4,4.7l-5.3,1.3c-0.8-2.2-2.7-3.4-5.7-3.4c-1.7,0-3.1,0.3-4,1
				s-1.4,1.6-1.4,2.6c0,1.7,1.4,2.9,4.3,3.6l5.3,1.3c3.2,0.8,5.3,1.9,6.4,3.4c1.1,1.5,1.6,3.1,1.6,4.9c0,2.9-1.1,5.2-3.4,6.9
				c-2.3,1.7-5.2,2.5-8.9,2.5c-3.1,0-5.7-0.6-8-1.8C185.4,138.6,183.9,136.7,183.2,134.1z M196.1,110.4l-6.9-6.2l4.1-0.4l2.8,2.8
				l1.8-1.9l4.1,0.4L196.1,110.4z"/>
			<path class="st1" d="M228.2,141.7h-6v-25H214v-4.6h22.4v4.6h-8.2V141.7z"/>
			<path class="st1" d="M248.8,141.7h-5.6v-30.5h5.6V141.7z"/>
		</g>
		<g id="BOKEŠKI_6_">
			<path class="st1" d="M91.6,102V71h12c2,0,3.7,0.2,5.1,0.6c1.3,0.4,2.5,1.3,3.5,2.7c1,1.3,1.5,2.9,1.5,4.8c0,1.7-0.5,3.2-1.5,4.5
				s-2.4,2.1-4.1,2.4c2.2,0.4,3.8,1.3,4.9,2.7c1.1,1.4,1.7,3,1.7,5c0,2.4-0.8,4.4-2.3,6c-1.6,1.6-4,2.4-7.2,2.4L91.6,102L91.6,102z
				 M96.9,84h6.8c1.4,0,2.5-0.4,3.3-1.3c0.8-0.8,1.2-1.9,1.2-3.2c0-1.4-0.5-2.5-1.4-3.1c-0.9-0.7-2-1-3.2-1h-6.7
				C96.9,75.4,96.9,84,96.9,84z M96.9,97.3h7.2c1.5,0,2.7-0.4,3.6-1.2c0.9-0.8,1.3-1.9,1.3-3.3c0-1.3-0.4-2.4-1.3-3.2
				c-0.9-0.8-2.1-1.3-3.6-1.3h-7.2V97.3z"/>
			<path class="st1" d="M133.6,101.4c-4.1,0-7.3-1.5-9.6-4.6c-2.3-3.1-3.4-6.9-3.4-11.5c0-4.5,1.2-8.3,3.6-11.3s5.6-4.6,9.6-4.6
				s7.2,1.5,9.5,4.6c2.3,3,3.5,6.8,3.5,11.4c0,4.8-1.2,8.7-3.6,11.6C140.8,100,137.6,101.4,133.6,101.4z M133.7,96.9
				c2,0,3.7-0.8,5.1-2.5c1.4-1.7,2.1-4.7,2.1-9.1c0-3.6-0.6-6.4-1.7-8.4c-1.1-2-2.9-3-5.3-3c-4.8,0-7.2,3.9-7.2,11.6
				c0,3.7,0.6,6.6,1.8,8.5C129.7,96,131.4,96.9,133.7,96.9z"/>
			<path class="st1" d="M178.8,101h-6.2l-6.5-15.8l-6,8v7.8h-5.6V70h5.6v16.3c0.7-1.1,1.2-1.9,1.5-2.3l10.3-14h5.6l-7.3,10.2
				L178.8,101z"/>
			<path class="st1" d="M205.6,101h-20.1V71.1h21.9v4.8h-16.3v6.6h11.5v4.6h-11.5V96h14.5L205.6,101L205.6,101z"/>
			<path class="st1" d="M212.6,93.5l5.4-1.2c0.6,3.1,3.1,4.6,7.5,4.6c2,0,3.5-0.4,4.6-1.2c1.1-0.8,1.6-1.8,1.6-2.9
				c0-0.8-0.2-1.6-0.7-2.4c-0.5-0.7-1.5-1.3-3.1-1.7l-5.9-1.5c-2-0.5-3.5-1.1-4.5-1.8c-1-0.7-1.7-1.6-2.3-2.9
				c-0.6-1.2-0.9-2.5-0.9-3.9c0-2.8,1-5,3.1-6.7s4.7-2.5,7.9-2.5c2.7,0,5,0.6,7.1,1.8c2.1,1.2,3.4,2.8,4,5l-5.3,1.3
				c-0.8-2.3-2.7-3.5-5.7-3.5c-1.7,0-3.1,0.4-4,1.1s-1.4,1.7-1.4,2.8c0,1.8,1.4,3,4.3,3.7l5.3,1.3c3.2,0.8,5.3,2,6.4,3.6
				c1.1,1.6,1.6,3.3,1.6,5.2c0,3-1.1,5.4-3.4,7.2s-5.2,2.6-8.9,2.6c-3.1,0-5.7-0.6-8-1.9C214.9,98.2,213.4,96.2,212.6,93.5z"/>
			<polyline class="st1" points="226,68.5 219.8,64.4 223.3,63.7 225.8,64.5 227.2,63.4 230.7,63.6 226,68.5 			"/>
			<path class="st1" d="M271.1,100.2h-6.2l-6.5-14.4l-6,7.3v7.1h-5.6V71.9h5.6v14.9c0.7-1,1.2-1.7,1.5-2.1l10.3-12.8h5.6l-7.3,9.3
				L271.1,100.2z"/>
			<path class="st1" d="M281.3,102h-5.6V71h5.6V102z"/>
		</g>
		<g id="KONOBA_13_" class="st2">
			<path class="st3" d="M132.7,32.8h-5.3l-12.5-14.9c-0.5-0.6-0.8-0.9-0.9-1.1h-0.1v16.1h-3.8V0.2h3.8v15.3h0.1
				c0.2-0.3,0.5-0.7,0.9-1.1L127,0.2h4.7l-13.9,15.6L132.7,32.8z"/>
			<path class="st3" d="M150.1,33.4c-4.6,0-8.3-1.5-11.1-4.6s-4.2-7-4.2-11.9c0-5.2,1.4-9.4,4.2-12.6c2.8-3.1,6.7-4.7,11.5-4.7
				c4.5,0,8.1,1.5,10.8,4.5s4.1,7,4.1,11.9c0,5.3-1.4,9.5-4.2,12.6C158.5,31.8,154.8,33.4,150.1,33.4z M150.3,3.1
				c-3.4,0-6.2,1.2-8.3,3.7s-3.2,5.7-3.2,9.7s1,7.2,3.1,9.7c2.1,2.4,4.8,3.7,8.1,3.7c3.6,0,6.4-1.2,8.4-3.5c2.1-2.3,3.1-5.6,3.1-9.8
				c0-4.3-1-7.6-3-10C156.6,4.3,153.8,3.1,150.3,3.1z"/>
			<path class="st3" d="M198.1,32.8h-4.7l-16.7-26c-0.4-0.7-0.8-1.3-1-2h-0.1c0.1,0.7,0.2,2.2,0.2,4.5v23.6H172V0.2h4.9l16.3,25.6
				c0.7,1.1,1.1,1.8,1.3,2.2h0.1c-0.2-0.9-0.2-2.5-0.2-4.8v-23h3.8v32.6H198.1z"/>
			<path class="st3" d="M219.7,33.4c-4.6,0-8.3-1.5-11.1-4.6c-2.8-3-4.2-7-4.2-11.9c0-5.2,1.4-9.4,4.2-12.6
				c2.8-3.1,6.7-4.7,11.5-4.7c4.5,0,8.1,1.5,10.8,4.5s4.1,7,4.1,11.9c0,5.3-1.4,9.5-4.2,12.6C228.2,31.8,224.4,33.4,219.7,33.4z
				 M220,3.1c-3.4,0-6.2,1.2-8.3,3.7s-3.2,5.7-3.2,9.7s1,7.2,3.1,9.7c2.1,2.4,4.8,3.7,8.1,3.7c3.6,0,6.4-1.2,8.4-3.5
				c2.1-2.3,3.1-5.6,3.1-9.8c0-4.3-1-7.6-3-10C226.2,4.3,223.5,3.1,220,3.1z"/>
			<path class="st3" d="M241.6,32.8V0.2h9.2c2.8,0,5,0.7,6.7,2.1c1.6,1.4,2.5,3.2,2.5,5.4c0,1.8-0.5,3.5-1.5,4.8
				c-1,1.4-2.4,2.3-4.1,2.9v0.1c2.2,0.3,3.9,1.1,5.3,2.5c1.3,1.4,2,3.2,2,5.5c0,2.8-1,5-3,6.8c-2,1.7-4.5,2.6-7.5,2.6L241.6,32.8
				L241.6,32.8z M245.4,3.7v10.5h3.9c2.1,0,3.7-0.5,4.9-1.5s1.8-2.4,1.8-4.3c0-3.2-2.1-4.8-6.2-4.8h-4.4V3.7z M245.4,17.6v11.7h5.2
				c2.2,0,4-0.5,5.2-1.6c1.2-1.1,1.8-2.5,1.8-4.4c0-3.8-2.6-5.8-7.8-5.8h-4.4L245.4,17.6L245.4,17.6z"/>
			<path class="st3" d="M293.3,32.8h-4.2l-3.4-9.1h-13.8l-3.2,9.1h-4.2L277,0.2h3.9L293.3,32.8z M284.4,20.3l-5.1-13.9
				c-0.2-0.5-0.3-1.2-0.5-2.2h-0.1c-0.1,0.9-0.3,1.7-0.5,2.2l-5,13.9H284.4z"/>
		</g>
		<g id="HOBOTNICA_6_">
			<path class="st1" d="M152.2,50.8l4.9-1.1c5.7-6.8,14.3-7.3,25.4-1.9c3.7,0.7,7.4-0.1,11.1-2.4c1.6-0.6,3.5-1.2,6-2.1
				c3-0.3,3.8-2.1,1.9-5.8l-0.4-5.2c-2,0.2-3.5,1.2-4,4.1c-3.2-0.1-4.9,1.4-5.2,4.4h-1.1l0.2-2.6c-2.6-0.2-4.3,0.3-4.2,2.1l-0.2,2
				l-2,0.1l-0.3-2.1c-0.4-1.8-1.5-2.5-3.3-2l-0.1,1.1l-3,0.2l0.2-1.8c-1.2-1.4-2.3-1.9-3.5-0.6l-0.2,1.2h-1.5
				c-1.9-2.7-3.2-2.4-3.9,0.8c-3.1-2.3-6.6,1.4-10.3,6.5L152.2,50.8z"/>
			<path class="st1" d="M264.2,66.4c-22,2.1-39.3-4.5-52.8-17.8c-12.5-12.9-8.8-24.7,8-23.6c14.7,4.4,6.8,20.9-1.7,13.3L221,35
				l-0.7-1.7c-0.4-0.1-2-0.7-2.8-0.9l-1.2-0.8c0.2,1.4,0,2.6-2.4,2.4c1.3,1.7,1,2.7,0,3.5c0.5,0.5,1,1.1,1.7,1.9
				c1.9,0.2,3.4,0.8,2.8,3.7c1.9-0.1,3.7-0.2,4.7,3.8c3.1-0.7,5.3-0.6,4.9,2.3l0.2,1.7c4.6-2.8,6.7-2.3,6,1.6l1.4,0.3
				c4.8-1.5,6.2-0.7,3.8,2.3l2.8-0.3l6.1,1.2l7.1-0.9c3.3,3.9,6.2,5.3,8.9,5.6C265.7,62.7,265.9,64.6,264.2,66.4z"/>
			<g>
				<path class="st1" d="M279.2,67.7c-0.7-1-0.3-2.5,0.7-3.1c1-1.1,0.6-2.9-0.3-4.1s-2.1-2.1-2.8-3.4c-0.7-1.3-0.7-3.2,0.6-3.9
					c1-0.6,2.5-0.3,3-1.3c0.4-0.8-0.2-1.7-0.9-2.1c-0.7-0.4-1.9-0.3-2.3-1c-1.8-3.2-2.4-12.3-7.9-9.2c0-0.6-0.1-1.2-0.1-1.9
					c1-0.1,1.8-1.2,1.5-2.2c-1.2,0.2-2.4-0.8-2.6-2c0.8,0,1.6,0.1,2.4,0.1c0.5-1.4,1-2.8,1.5-4.1c0.7,1.4,2.3,2.2,3.8,2.1
					s3-1.2,3.5-2.6c0.5,1,1.1,2.1,2,2.8s2.3,0.9,3.2,0.2c0.4-0.3,0.8-0.9,1.3-0.8c1,0.1,0.6,1.7,1.1,2.6c0.5,1,1.9,0.8,2.9,0.5
					s2.3-0.7,3.1,0c0.4,0.4,0.5,0.9,0.8,1.4c1.1,2.2,4.7,2.6,6.2,0.6c0.3,2.2,3.4,3.3,5,1.9c0.4-0.3,0.8-0.8,1.3-0.9
					c0.9-0.1,1.4,1,2.1,1.6s1.8,0.7,2.6,0.2s1.1-1.6,0.8-2.5c1.2,1,2.5,2.1,4,2.1s3-1.9,2-3c1.4,0.8,2.9,1.6,4.4,1.3
					s2.7-2.4,1.6-3.5c1,0.1,2.1,0.2,3-0.1c1-0.3,1.8-1.2,1.8-2.2c0.6-0.2,1.3-0.3,1.9-0.5c0.7-1.2,1.1-2.6,1.4-4
					c0.7-3,1.1-6.4-0.4-9.1c-1.2-3.2-5.4-6-8.6-4.9c-7.4-0.9-9.9,4.5-8.2,13.8c1.8,1.2,3.6,0.6,5.2-1.5l2.3-6.2
					c2,2.2,2.6,4.6,0.2,7.2c-11.7,5.8-22.3,3-38.5-3.8c-16.6-4.4-38.7,8.2-25.4,21.7c4.7,4.5,8.1,9.5,7,15.7
					c1.2,2.5,2.7,5.3,4.2,8.3L279.2,67.7z"/>
			</g>
			<g>
				<path class="st1" d="M282.6,61.7c11.7-6.8,23.7-10.4,35.9-12.4l1.4,1.5c6.1,1.2,13.6,5.3,21.4,10.2c12.7,4.4,23.3,6.1,25.3-2.6
					c0.8-6.3,0-10.1-2.3-11.4c-2.4-2.9-3.3-1.2-3.1,3.8l3,6.4c-2.1,3.8-4.5,5.8-7.3,4.9l0.2-3.5l-1.6-2.6l0.2-1.9
					c-2.2,0.3-2.9-0.9-1.2-4.2c-2.4-1.4-3.1-3.3-1.6-5.9l0.5-3.8c6.3-7.8,14.3-5.2,21.6,7.2c1.3,2.3,2.9,4.8,3,7.4
					c-0.8,0.5-1.6,1-2.3,1.5c0.9,0.6,1.1,1.8,0.9,2.8c-0.3,1-0.9,1.9-1.6,2.7c-0.9,1.2-1.8,2.3-2.7,3.5c-1.5,2-3.4,4.1-5.9,4.3
					c0.6,0.7,0,1.8-0.8,2.1c-0.8,0.3-1.7,0.2-2.6,0.1s-1.8-0.2-2.5,0.4c-1.1,0.9-1.2,3-2.6,3.3c-1.7,0.4-2.4-2.3-4.1-2.7
					c-2.4-0.5-3.8,4-6.2,3.2c-1.7-0.5-1.7-3.4-3.4-4c-2.2-0.9-4.1,2.9-6.4,2.2c-1.3-0.5-1.6-2.1-2-3.4s-2.1-2.6-3.1-1.6
					c0.4,1.4-0.3,3-1.6,3.6c-1.3,0.6-3,0.2-3.8-0.9c-0.6-0.8-0.8-1.9-1.2-2.8s-1.4-1.7-2.4-1.5c-0.8,0.2-1.2,1-1.8,1.6
					c-1,0.9-2.6,1-3.7,0.3s-1.7-2.3-1.2-3.5c-0.6-0.1-1.1-0.1-1.7-0.2c0.3,1.7-0.4,3.6-1.8,4.6s-3.4,1.1-4.9,0.3c0-1.3-2.1-2-2.8-1
					c1.5,1.5,1.6,4.1,0.3,5.7s-3.9,2-5.6,0.9c-0.7-0.5-1.3-1.2-2-1.7s-1.7-0.8-2.5-0.3c-0.7,2-1.5,4.2-3,5.7
					c-1.5,1.6-3.9,2.5-5.9,1.6c-2.3-1.1-3-4-3.5-6.5C283.1,70.7,283.3,65.8,282.6,61.7z"/>
			</g>
			<path class="st1" d="M336,21.8c1.2-0.4,2.5,0.5,3.8,0.4c1.2-0.2,2.1-1.3,2.6-2.4s0.9-2.3,1.8-3.2c2.3-2.4,7.1-1.5,10-1.5
				c2.3,0,4.6,0.1,6.9,0.1c1.8,0,5-0.6,6.5,0.6c0.2,0.2,1,1.6,0.8,1.6c-2.6-0.4-5.5,0.4-7.4,2.2c-0.4,0-0.7,0.1-1.1,0.1
				c0-0.9-1.5-1-1.9-0.2s0,1.8,0.3,2.6c-0.5,0-1,0-1.5,0.1c0.1-1-0.2-2.3-1.2-2.3c-0.6,0-1,0.6-1.2,1.2s-0.3,1.2-0.7,1.6
				s-1.3,0.4-1.4-0.2c-0.3-1-0.7-1.9-1-2.9c-0.3,0.9-0.5,1.8-0.8,2.7c-0.8,0.1-1.6,0.1-2.4,0.2c0.8,0.9,0.7,2.4-0.1,3.3
				c-0.8,0.9-2.3,1.1-3.2,0.4c0.7,2.2-1.8,4.8-4,4.1c-0.3-0.1-0.8-1.3-1.3-1.5c-1.3-0.6-1,0-1.8,0.6c-1.1,0.9-1.8,1.9-3.1,0.5
				C333.1,28.2,333.5,22.5,336,21.8z"/>
			<g>
				<path class="st1" d="M371,81.1c5.3-1.2,7.4-7.8,13.3-8.2c2.3-0.2,4.4,1.1,6.7,1.2c2.9,0.2,6.3-0.6,9,0.4c0,0-3.3,1.9-3.6,2.1
					c-0.5,0.6-0.4,1.9-1.2,2.2c-1,0.3-2-0.9-1.9-1.8c-1.1,0.2-1.9,1-2.7,1.7c-0.8,0.8-1.6,1.6-2.7,1.9s-2.5-0.3-2.6-1.5
					c-0.4,2.2-3,3.8-5.1,3c0.7,0.8,0.1,2.2-0.8,2.8c-0.9,0.6-2.1,0.8-3,1.5c-0.9,0.6-1.5,1.6-2.2,2.4s-1.9,1.3-2.9,0.9
					c0.2-1.2-0.9-2.4-2.1-2.2c0.3,1.2-1,2.5-2.3,2.3c-1.3-0.1-2.2-1.4-2.4-2.6c-0.2-1.3,0.4-2.5,1.1-3.6c-0.6,0.6-2.1-0.8-2.6-1.1
					c-1.5-1.2-1.4-1.8-1-3.7c0.8-0.6,1.7-0.9,2.7-1.2c0-1.6-0.2-2.8,0.8-4.1c0.8-1,3-3.2,4-3.7C373.7,67.9,371.4,79.8,371,81.1z"/>
			</g>
			<g>
				<path class="st1" d="M289.6,83.9c4-1.2,6.7-3.1,8.2-5.6c9-1.8,15.6,5.3,20.7,17.1c6.8,11.1,14.6,13.2,24,2.3
					c8.9-5.2,16.4-4.6,22.1,3.5c7.3,11.6,14.6,28.5,22.1,14.9c1.7-3.3,4.5-4.4,8.4-3.5l4.8-1.9l-3.8,4.7c-2.4-0.4-3.3,0.9-3,3.5
					c-1.8,0-2.8,0.6-2.1,2.4c-2.2,0.2-2.8,1.2-1.9,3l-4.7,0.9c-1,2.1-4.4,2.2-6.6,1.5s-4.9-1.5-6.5,0.2c0.6-2.9-1.3-5.7-3.2-8.1
					c-2.2-2.8-4.4-5.7-6.6-8.5c-2.2,0.2-4.1-2.2-3.4-4.3c-0.7,0.5-1.4,1.1-2.2,1.2c-0.8,0.1-1.8-0.3-2-1.1c-0.2-0.8,0.1-2.1-0.7-2
					c-0.7,0-0.6,1.1-0.9,1.8c-0.7,1.5-3.3,0.1-4.4,1.1c-1,0.9-0.2,2.7-1.1,3.7s-2.5,0.4-3.8,0.6c-1.4,0.2-2.5,1.5-3.3,2.6
					c-0.9,1.2-1.9,2.4-3.3,2.6s-3.1-1.4-2.3-2.6c-0.8,1-1.6,2.1-2.8,2.7c-1.1,0.6-2.7,0.7-3.7-0.1c-0.7-0.6-1-1.5-1.5-2.2
					s-1.5-1.3-2.2-0.9c-0.2,0.8-0.5,1.7-0.7,2.5c-0.6,1.1-2.4,0.4-2.9-0.7s-0.5-2.5-1.2-3.5c-1-1.4-2.9-1.6-4.4-2.2
					c-1.6-0.6-3.1-2.4-2.2-3.8c-1.3,1.4-3.7,0.6-4.7-1.1s-0.8-3.6-0.6-5.5c-1.9,0.4-4,0.8-5.8,0.1c-1.9-0.7-3.3-2.8-2.5-4.6
					c0.4-0.9,1.3-1.8,1-2.8c-0.4-1.1-1.9-1-3-1C293.3,91,290.6,87.4,289.6,83.9z"/>
			</g>
			<path class="st1" d="M322.3,179.7c-1-0.3-1.9-1.1-2.3-2.1c-0.7,0.9-2.4,0-2.1-1c-1.2,0.2-2.2-1-2.9-2c-0.6-0.9-1.2-1.8-1.8-2.7
				c-1.6-2.3-3.3-5.1-2.1-7.7c-0.7-0.1-1.5-0.2-2.2-0.3c-0.1-1.6,0.2-3.2,1.1-4.6c-1.8,0.3-3.4-2-2.4-3.6c0.3-0.4,0.7-0.8,0.7-1.3
				c0.1-0.8-0.6-1.4-1.2-2s-1-1.6-0.4-2.1c0.6-0.1,1.2-0.2,1.8-0.3c-0.4-1.3-1.3-2.5-1.4-3.9s1.3-2.9,2.5-2.3
				c-0.8-0.7-1.6-1.6-1.8-2.6c-0.2-1.1,0.7-2.4,1.8-2.1c-0.5-1.3-0.2-2.8,0.7-3.8c-1.2,0.3-2.4,0.5-3.5,0s-1.8-2-1.1-2.9
				c-0.8-0.6-2.2,0.2-2.1,1.2c-1.2,0.1-2.5,0.2-3.4-0.6s-0.6-2.7,0.6-2.7c-2.1,0.5-4.3,0.7-6.5,0.7c-0.3-1.4-1.3-2.7-2.7-3.3
				c-1.4-0.5-3-0.3-4.2,0.6c-0.6-1.5-1.2-3.1-1.8-4.6c-1.6,0.9-3.7,0.7-5-0.5c-1.4-1.1-2-3.1-1.5-4.9c-1.3-0.5-2.6-1-4-1.5
				c-0.2-0.8-0.3-1.5-0.5-2.3c0.8-0.5,1.3-1.4,1.6-2.3c-1.5-0.2-3.1-1.4-3.1-3c3.8-5.4,8.6-7.7,12.9-3.6c0.1,3,0.1,5.6,0.2,7.8
				c9.9,6.1,18.9,11.2,23.9,11.4c8.4-1.1,12,3.7,8.4,13.1c-5.2,16.3-5.7,30.5,4.2,40.2"/>
			<path class="st1" d="M128.3,159.8l-16.9-8.3c-0.1-0.8,0.1-1.5,1.4-1.6l4.6,1.9c2,0.5,3.3,0.2,3.7-1.5l4.4-8.7
				c1,0.9,2,1.7,3.1,1.7l-5,8.9c-0.4,1.1-0.4,2.1,0.7,2.6l4,2.5C128.7,158.7,128.8,159.6,128.3,159.8z"/>
		</g>
		<g id="KONOBA_12_">
			<path class="st1" d="M18.6,6.1l-1.7,2.2C16.3,9.1,16,9.8,16,10.4c0,0.3,0.1,0.7,0.2,1s0.4,0.8,0.8,1.4l6,9.1
				c0.5,0.8,0.9,1.3,1.1,1.5s0.5,0.4,0.9,0.7c0.6,0.3,1,0.7,1.2,1.1s0.4,0.9,0.4,1.5c0,1.5-0.8,2.2-2.4,2.2h-6c-0.4,0-0.7-0.1-1-0.4
				c-0.2-0.2-0.6-0.8-1.1-1.8c-0.8-1.5-1.9-3.2-3.3-5.2c-0.6-0.8-1-1.4-1.3-1.6c-0.2-0.3-0.5-0.4-0.7-0.4c-0.6,0-0.9,0.8-0.9,2.3
				c0,1.2,0.2,2.1,0.6,2.6c0.1,0.1,0.2,0.2,0.5,0.5c0.6,0.5,0.9,1.1,0.9,1.8c0,0.9-0.5,1.6-1.4,2S8,29.3,5.8,29.3
				c-2,0-3.4-0.2-4.3-0.5c-0.4-0.1-0.7-0.4-0.9-0.8s-0.4-0.8-0.4-1.2c0-0.7,0.3-1.4,1-1.9c0.3-0.3,0.5-0.5,0.6-0.8s0.2-0.8,0.3-1.5
				c0.2-1.6,0.3-4,0.3-7.3c0-3.9-0.1-6.7-0.3-8.3C1.9,6.4,1.8,5.9,1.7,5.6C1.5,5.3,1.3,5.1,0.9,4.8C0.3,4.3,0,3.7,0,2.9
				c0-0.7,0.2-1.2,0.6-1.6s1-0.7,1.8-0.9c1-0.3,2.4-0.4,4-0.4c1.7,0,2.9,0.2,3.7,0.6c0.7,0.4,1.1,1.1,1.1,2.1c0,0.4-0.1,0.7-0.2,1
				c-0.1,0.2-0.4,0.6-0.9,1.1C10,4.9,9.9,5.4,9.7,6.1C9.6,6.9,9.5,7.6,9.5,8.3c0,1.2,0.2,1.8,0.6,1.8c0.2,0,0.5-0.1,0.7-0.4
				c0.2-0.3,0.7-1,1.4-2.1c0.8-1.3,1.2-2.2,1.2-2.7c0-0.3-0.1-0.6-0.3-1.1c-0.1-0.3-0.2-0.7-0.2-1c0-1,0.4-1.8,1.3-2.2
				C15,0.2,16.5,0,18.5,0c1.6,0,2.8,0.1,3.6,0.4c1,0.3,1.5,1.1,1.5,2.2c0,0.4-0.1,0.9-0.3,1.2c-0.2,0.4-0.5,0.6-0.7,0.7
				s-0.7,0.2-1.5,0.2c-0.6,0-1,0.1-1.3,0.3C19.5,5.2,19.1,5.6,18.6,6.1z"/>
			<path class="st1" d="M46.6-0.2c2.7,0,5.1,1,7.2,3.1c1.4,1.4,2.5,3.2,3.4,5.5c0.8,2.2,1.3,4.5,1.3,6.7c0,3.3-0.8,6.2-2.5,8.8
				c-1.4,2.2-3.2,3.8-5.5,4.8c-1.4,0.6-2.8,0.9-4.2,0.9c-1.8,0-3.6-0.5-5.3-1.5c-2-1.2-3.6-3.1-4.8-5.5c-1.1-2.4-1.7-5-1.7-7.9
				c0-3.3,0.7-6.3,2.2-8.8c1.3-2.3,3-3.9,5.2-5C43.2,0.2,44.8-0.2,46.6-0.2z M45.1,5.8c-0.9,0-1.6,0.5-2.1,1.6
				c-0.4,0.8-0.6,1.7-0.6,2.8c0,1.6,0.2,3.4,0.7,5.5s1.1,3.9,1.9,5.5c0.3,0.7,0.7,1.2,1.2,1.6s1,0.6,1.5,0.6c0.8,0,1.5-0.4,2-1.2
				c0.5-0.8,0.7-1.8,0.7-3.1c0-1.7-0.2-3.5-0.6-5.5c-0.4-2-1-3.6-1.6-5c-0.4-0.9-0.9-1.5-1.4-2C46.2,6.1,45.6,5.8,45.1,5.8z"/>
			<path class="st1" d="M75.7,1.4l7.9,9.1c0.7,0.9,1.3,1.3,1.6,1.3c0.6,0,0.8-0.8,0.8-2.3c0-1.8-0.1-3-0.2-3.6
				c-0.2-0.6-0.5-1.1-1-1.4c-0.4-0.3-0.7-0.5-0.9-0.8c-0.2-0.3-0.3-0.7-0.3-1.2c0-1.2,0.6-1.9,1.8-2.3C86,0,86.9,0,88.1,0
				c1.6,0,2.7,0.1,3.3,0.4c1,0.4,1.5,1.1,1.5,2.2c0,0.9-0.4,1.6-1.2,2.1C91.4,4.9,91.2,5,91,5.2c-0.1,0.1-0.2,0.3-0.3,0.6
				c-0.3,0.9-0.4,2.7-0.4,5.2v6.8c0,1,0,2.5,0,4.3c0,2.5-0.1,4.2-0.3,5.3c-0.3,1.4-0.8,2-1.6,2c-0.3,0-0.6-0.1-0.9-0.3
				c-0.2-0.2-0.6-0.6-1.2-1.3l-9.5-11.1c-0.7-0.8-1.2-1.2-1.6-1.2c-0.6,0-1,1.2-1,3.5c0,1.9,0.1,3.3,0.2,4c0.2,0.7,0.5,1.2,1,1.6
				c0.7,0.5,1.1,1.1,1.1,1.8c0,1.9-1.6,2.9-4.8,2.9c-1.4,0-2.5-0.2-3.3-0.7s-1.2-1.2-1.2-2.1c0-0.5,0.1-0.8,0.2-1.1
				c0.1-0.2,0.5-0.6,1-1s0.8-1.1,0.9-2.1c0.2-1.8,0.3-4.4,0.3-7.8c0-3.6-0.2-6.2-0.5-7.9c-0.1-0.6-0.3-1-0.4-1.3
				c-0.2-0.3-0.5-0.6-0.9-0.8c-0.5-0.3-0.8-0.6-1-0.9S66.5,3,66.5,2.5c0-1.3,0.9-2.2,2.6-2.5c0.8,0,1.8,0,3.3,0
				c0.9,0,1.5,0.1,1.9,0.3C74.7,0.4,75.1,0.8,75.7,1.4z"/>
			<path class="st1" d="M114.4-0.2c2.7,0,5.1,1,7.2,3.1c1.4,1.4,2.5,3.2,3.4,5.5c0.8,2.2,1.3,4.5,1.3,6.7c0,3.3-0.8,6.2-2.5,8.8
				c-1.4,2.2-3.2,3.8-5.5,4.8c-1.4,0.6-2.8,0.9-4.2,0.9c-1.8,0-3.6-0.5-5.3-1.5c-2-1.2-3.6-3.1-4.8-5.5c-1.1-2.4-1.7-5-1.7-7.9
				c0-3.3,0.7-6.3,2.2-8.8c1.3-2.3,3-3.9,5.2-5C111.1,0.2,112.7-0.2,114.4-0.2z M112.9,5.8c-0.9,0-1.6,0.5-2.1,1.6
				c-0.4,0.8-0.6,1.7-0.6,2.8c0,1.6,0.2,3.4,0.7,5.5s1.1,3.9,1.9,5.5c0.3,0.7,0.7,1.2,1.2,1.6s1,0.6,1.5,0.6c0.8,0,1.5-0.4,2-1.2
				c0.5-0.8,0.7-1.8,0.7-3.1c0-1.7-0.2-3.5-0.6-5.5s-1-3.6-1.6-5c-0.4-0.9-0.9-1.5-1.4-2C114,6.1,113.5,5.8,112.9,5.8z"/>
			<path class="st1" d="M144.4,29h-2.1c-1.5,0-2.6,0.1-3.3,0.1c-0.6,0.1-1.1,0.1-1.3,0.1c-0.6,0-1.2-0.2-1.5-0.6
				c-0.4-0.4-0.6-0.9-0.6-1.6c0-0.4,0.1-0.7,0.2-0.9c0.1-0.2,0.5-0.6,1-1c0.3-0.3,0.5-0.7,0.6-1.3c0.1-0.6,0.2-1.9,0.4-3.8
				c0.2-3,0.3-6.8,0.3-11.2c0-1.6-0.1-2.7-0.2-3.3c-0.2-0.5-0.6-1-1.2-1.3c-0.7-0.4-1.1-1-1.1-1.7c0-0.6,0.2-1.1,0.6-1.5
				c0.4-0.4,1-0.6,1.6-0.6c0.4,0,0.8,0,1.4,0.1c0.9,0.1,1.9,0.1,3,0.1c0.8,0,2.4,0,4.7-0.1c0.7,0,1.4,0,2,0c1.4,0,2.6,0.1,3.4,0.5
				c0.9,0.3,1.6,0.8,2.3,1.5c1,1.2,1.6,2.7,1.6,4.6c0,1-0.2,1.9-0.5,2.8c-0.3,0.9-0.7,1.6-1.2,2.2c-0.4,0.4-0.6,0.7-0.6,1.1
				c0,0.3,0.2,0.6,0.7,0.9c0.9,0.5,1.7,1.2,2.4,2.3s1.1,2.5,1.1,4.3c0,2-0.6,3.8-1.7,5.5c-1.5,2.2-3.7,3.3-6.6,3.3
				c-0.4,0-1.4,0-2.9-0.1C145.6,29,144.7,29,144.4,29z M145.5,6.2v4.3c0,0.7,0.1,1.2,0.2,1.4c0.1,0.3,0.4,0.4,0.7,0.4
				c0.8,0,1.4-0.3,1.7-1c0.4-0.6,0.6-1.6,0.6-3c0-1.3-0.2-2.3-0.6-3c-0.4-0.7-0.9-1.1-1.6-1.1c-0.4,0-0.6,0.1-0.8,0.4
				S145.5,5.5,145.5,6.2z M145.5,18.3v2c0,1.8,0.1,3,0.3,3.6s0.6,0.9,1.2,0.9c1.6,0,2.4-1.2,2.4-3.7c0-3.1-0.9-4.7-2.7-4.7
				c-0.5,0-0.8,0.1-1,0.4C145.6,17.1,145.5,17.6,145.5,18.3z"/>
			<path class="st1" d="M188,14.5l3,8.5c0.3,0.8,0.5,1.3,0.7,1.5s0.5,0.4,0.9,0.5c0.8,0.2,1.1,0.7,1.1,1.5c0,1-0.5,1.8-1.4,2.2
				c-0.9,0.4-2.5,0.7-4.6,0.7c-2.4,0-4.2-0.1-5.3-0.4c-0.5-0.1-1-0.4-1.3-0.8s-0.5-0.8-0.5-1.4c0-0.4,0.1-0.7,0.2-1
				c0.2-0.2,0.5-0.4,0.9-0.6c0.5-0.2,0.7-0.6,0.7-1.1c0-0.9-0.4-1.5-1.3-1.7c-0.9-0.2-2.2-0.3-3.9-0.3c-1.4,0-2.3,0.1-2.5,0.3
				c-0.2,0.1-0.3,0.4-0.4,0.8c-0.1,0.4-0.2,0.7-0.2,1s0,0.5,0.1,0.6s0.4,0.2,0.9,0.5c0.6,0.3,1,0.8,1,1.5c0,1.7-1.5,2.5-4.5,2.5
				c-1.7,0-3-0.2-3.8-0.5c-0.7-0.3-1.1-0.9-1.1-1.9c0-0.4,0.1-0.8,0.2-1c0.2-0.2,0.5-0.5,0.9-0.6c0.7-0.3,1.2-0.8,1.6-1.4
				c0.4-0.6,0.9-1.8,1.5-3.7l2.2-6.5c0.8-2.4,1.4-4.2,1.7-5.3c0.3-1.2,0.4-2.3,0.4-3.5s0.1-2,0.2-2.5c0.1-0.5,0.3-0.9,0.7-1.4
				c0.7-1,1.7-1.5,2.8-1.5s2.1,0.6,3.1,1.7C183.4,2.8,185.4,7.2,188,14.5z M176.9,17.1h3.1c0.6,0,0.9-0.2,0.9-0.5
				c0-0.5-0.4-1.6-1.2-3.4c-0.4-0.8-0.6-1.4-0.8-1.7s-0.4-0.4-0.6-0.4c-0.4,0-0.7,0.5-1,1.4c0,0.1-0.2,0.6-0.5,1.5
				c-0.4,1.4-0.7,2.3-0.7,2.6C176.1,17,176.4,17.1,176.9,17.1z"/>
		</g>
	</g>
</g>
</svg>
