<?xml version="1.0" encoding="utf-8"?>
<!-- Generator: Adobe Illustrator 24.0.1, SVG Export Plug-In . SVG Version: 6.00 Build 0)  -->
<svg version="1.1" id="Layer_1" xmlns="http://www.w3.org/2000/svg" xmlns:xlink="http://www.w3.org/1999/xlink" x="0px" y="0px"
	 viewBox="0 0 40 24" style="enable-background:new 0 0 40 24;" xml:space="preserve">
<style type="text/css">
	.st0{fill:#FFFFFF;}
	.st1{fill:#0A46B8;}
	.st2{fill:#DE0000;}
	.st3{fill:#E00006;}
	.st4{fill:#FCCF16;}
</style>
<g>
	<rect y="8" class="st0" width="40" height="8"/>
	<rect y="0" class="st1" width="40" height="8"/>
	<rect y="16" class="st2" width="40" height="8"/>
</g>
<g>
	<polygon class="st3" points="17.3,12.7 12.9,9.5 18.3,9.5 20,4.4 21.7,9.5 27.1,9.5 22.7,12.7 24.4,17.8 20,14.7 15.6,17.8 	"/>
	<path class="st4" d="M20,4.9l1.5,4.6l0.1,0.2h0.2h4.9l-3.9,2.8l-0.2,0.1l0.1,0.2l1.5,4.6l-3.9-2.8L20,14.5l-0.2,0.1l-3.9,2.8
		l1.5-4.6l0.1-0.2l-0.2-0.1l-3.9-2.8h4.9h0.2l0.1-0.2L20,4.9 M20,3.9l-1.8,5.5h-5.8l4.7,3.4l-1.8,5.5l4.7-3.4l4.7,3.4l-1.8-5.5
		l4.7-3.4h-5.8L20,3.9L20,3.9z"/>
</g>
</svg>
