<?xml version="1.0" encoding="utf-8"?>
<!-- Generator: Adobe Illustrator 24.0.1, SVG Export Plug-In . SVG Version: 6.00 Build 0)  -->
<svg version="1.1" id="Layer_1" xmlns="http://www.w3.org/2000/svg" xmlns:xlink="http://www.w3.org/1999/xlink" x="0px" y="0px"
	 viewBox="0 0 283.5 170.1" style="enable-background:new 0 0 283.5 170.1;" xml:space="preserve">
<style type="text/css">
	.st0{fill:#FFFFFF;}
	.st1{fill:#0A46B8;}
	.st2{fill:#DE0000;}
	.st3{fill:#E00006;}
	.st4{fill:#FCCF16;}
</style>
<g id="driwe">
	<g>
		<rect y="56.7" class="st0" width="283.5" height="56.7"/>
		<rect y="-0.1" class="st1" width="283.5" height="56.7"/>
		<rect y="113.3" class="st2" width="283.5" height="56.7"/>
	</g>
</g>
<g>
	<polygon class="st3" points="122.4,90.6 91.2,68.1 129.8,68.1 141.7,31.7 153.7,68.1 192.2,68.1 161,90.6 172.9,127 141.7,104.5 
		110.5,127 	"/>
	<path class="st4" d="M141.7,35.2l10.7,32.5l0.5,1.5h1.6h34.4l-27.8,20l-1.3,0.9l0.5,1.5l10.6,32.5L143,104.1l-1.3-0.9l-1.3,0.9
		l-27.9,20.1l10.6-32.5l0.5-1.5l-1.3-0.9l-27.8-20H129h1.6l0.5-1.5L141.7,35.2 M141.7,28.3L129,67.1H87.9l33.3,24l-12.7,38.8
		l33.3-24l33.3,24L162.3,91l33.3-24h-41.1L141.7,28.3L141.7,28.3z"/>
</g>
</svg>
