<?xml version="1.0" encoding="utf-8"?>
<!-- Generator: Adobe Illustrator 24.0.1, SVG Export Plug-In . SVG Version: 6.00 Build 0)  -->
<svg version="1.1" id="Layer_1" xmlns="http://www.w3.org/2000/svg" xmlns:xlink="http://www.w3.org/1999/xlink" x="0px" y="0px"
	 viewBox="0 0 20 12" style="enable-background:new 0 0 20 12;" xml:space="preserve">
<path d="M0,2c0-1.1,0.9-2,2-2h6h1.5H10h8c1.1,0,2,0.9,2,2v8c0,1.1-0.9,2-2,2h-8H9.5H8H2c-1.1,0-2-0.9-2-2V2z M10,2v8h8V2H10z
	 M5.6,3.5C5.5,3.3,5.2,3.1,5,3.1S4.5,3.3,4.4,3.5L2.4,8c-0.1,0.3,0,0.7,0.3,0.8s0.7,0,0.8-0.3l0.3-0.6h2.3l0.3,0.6
	C6.6,8.8,6.9,9,7.3,8.8S7.7,8.3,7.6,8C7.6,8,5.6,3.5,5.6,3.5z M5,5.3l0.6,1.3H4.4L5,5.3z M14,3.1c0.3,0,0.6,0.3,0.6,0.6v0.1H16h0.5
	c0.3,0,0.6,0.3,0.6,0.6s-0.3,0.6-0.6,0.6h-0.1l0,0.1c-0.3,0.8-0.7,1.5-1.2,2c0,0,0.1,0,0.1,0.1l0.6,0.4c0.3,0.2,0.4,0.6,0.2,0.9
	S15.5,9,15.2,8.8l-0.6-0.4c-0.1-0.1-0.3-0.2-0.4-0.3c-0.3,0.2-0.7,0.4-1.1,0.6L13,8.8c-0.3,0.1-0.7,0-0.8-0.3s0-0.7,0.3-0.8l0.1-0.1
	c0.2-0.1,0.4-0.2,0.6-0.3l-0.4-0.4c-0.2-0.2-0.2-0.6,0-0.9s0.6-0.2,0.9,0l0.5,0.5l0,0c0.4-0.4,0.7-0.9,0.9-1.4H14h-2.3
	c-0.3,0-0.6-0.3-0.6-0.6s0.3-0.6,0.6-0.6h1.6V3.7C13.4,3.4,13.7,3.1,14,3.1L14,3.1z"/>
</svg>
